<svg xmlns="http://www.w3.org/2000/svg" xmlns:xlink="http://www.w3.org/1999/xlink" xmlns:serif="http://www.serif.com/" viewBox="0 0 32 40" version="1.1" xml:space="preserve" style="" x="0px" y="0px" fill-rule="evenodd" clip-rule="evenodd" stroke-linejoin="round" stroke-miterlimit="2"><g transform="matrix(1,0,0,1,-1241.61,-0.433629)"><path d="M1257,9.857L1257,11.192C1255.65,11.76 1250.25,14.089 1248.12,15.851C1245.6,17.942 1244.19,20.784 1244.19,23.742L1244.19,30C1244.19,30.276 1244.42,30.5 1244.69,30.5L1270.3,30.5C1270.58,30.5 1270.8,30.276 1270.8,30L1270.8,23.742C1270.8,22.227 1270.43,20.744 1269.73,19.375C1270.53,18.436 1271.02,17.217 1271.02,15.886C1271.02,12.918 1268.61,10.509 1265.64,10.509C1263.88,10.509 1262.31,11.362 1261.33,12.678C1259.86,11.986 1258.57,11.432 1258,11.192L1258,9.883C1259.49,9.73 1260.74,8.723 1261.23,7.359C1261.31,7.162 1261.25,6.941 1261.09,6.806C1260.93,6.67 1260.7,6.649 1260.52,6.752C1260.13,6.972 1259.68,7.097 1259.21,7.097C1257.73,7.097 1256.54,5.9 1256.54,4.426C1256.54,3.949 1256.66,3.501 1256.88,3.114C1256.98,2.931 1256.96,2.704 1256.83,2.544C1256.69,2.384 1256.47,2.326 1256.27,2.398C1254.79,2.939 1253.73,4.364 1253.73,6.034C1253.73,7.965 1255.15,9.568 1257,9.857ZM1269.8,27.564L1245.19,27.564L1245.19,29.5C1245.19,29.5 1269.8,29.5 1269.8,29.5L1269.8,27.564ZM1260.8,13.537C1259.29,12.823 1257.97,12.265 1257.5,12.067C1256.41,12.519 1250.89,14.856 1248.76,16.62C1246.48,18.51 1245.19,21.069 1245.19,23.742L1245.19,26.564L1269.8,26.564L1269.8,23.742C1269.8,22.485 1269.51,21.253 1268.98,20.104C1268.06,20.83 1266.9,21.263 1265.64,21.263C1262.67,21.263 1260.27,18.854 1260.27,15.886C1260.27,15.044 1260.46,14.247 1260.8,13.537ZM1265.64,11.509C1268.06,11.509 1270.02,13.47 1270.02,15.886C1270.02,18.302 1268.06,20.263 1265.64,20.263C1263.23,20.263 1261.27,18.302 1261.27,15.886C1261.27,13.47 1263.23,11.509 1265.64,11.509ZM1264.9,13.229L1264.9,16.04C1264.9,16.173 1264.95,16.3 1265.04,16.394L1266.71,18.06C1266.9,18.255 1267.22,18.255 1267.41,18.06C1267.61,17.865 1267.61,17.548 1267.41,17.353L1265.9,15.833C1265.9,15.833 1265.9,13.229 1265.9,13.229C1265.9,12.953 1265.67,12.729 1265.4,12.729C1265.12,12.729 1264.9,12.953 1264.9,13.229ZM1255.56,4.017C1255.54,4.152 1255.54,4.288 1255.54,4.426C1255.54,6.452 1257.18,8.097 1259.21,8.097C1259.34,8.097 1259.48,8.089 1259.61,8.074C1259.1,8.587 1258.38,8.903 1257.6,8.903C1256.01,8.903 1254.73,7.618 1254.73,6.034C1254.73,5.248 1255.05,4.535 1255.56,4.016L1255.56,4.017Z"/></g><text x="0" y="47" fill="#000000" font-size="5px" font-weight="bold" font-family="'Helvetica Neue', Helvetica, Arial-Unicode, Arial, Sans-serif">Created by rendicon</text><text x="0" y="52" fill="#000000" font-size="5px" font-weight="bold" font-family="'Helvetica Neue', Helvetica, Arial-Unicode, Arial, Sans-serif">from the Noun Project</text></svg>